<?xml version="1.0" standalone="no"?><!DOCTYPE svg PUBLIC "-//W3C//DTD SVG 1.1//EN" "http://www.w3.org/Graphics/SVG/1.1/DTD/svg11.dtd"><svg t="1557149406983" class="icon" style="" viewBox="0 0 1024 1024" version="1.1" xmlns="http://www.w3.org/2000/svg" p-id="2062" xmlns:xlink="http://www.w3.org/1999/xlink" width="200" height="200"><defs><style type="text/css"></style></defs><path d="M504.14122453 511.28185929a27.18790275 27.18790275 0 0 1-27.69738725-26.58578555V167.93616146C476.44383728 153.20745076 488.85671334 141.21142578 504.14122453 141.21142578c15.33082788 0 27.79001993 12.04234168 27.79001993 26.72473567v316.62096217a27.23421944 27.23421944 0 0 1-27.74370324 26.72473567zM495.80421796 882.27862768a360.20497634 360.20497634 0 0 1-250.57334721-100.13670562A340.70564626 340.70564626 0 0 1 169.27148263 673.48294306a331.25703945 331.25703945 0 0 1 12.7370923-291.70257664A349.92266953 349.92266953 0 0 1 289.83385319 262.56118036a28.39213713 28.39213713 0 0 1 38.72076066 6.20643732 26.02998578 26.02998578 0 0 1-6.48433755 37.19231003 295.77844687 295.77844687 0 0 0-90.96599906 100.6925061 275.81594898 275.81594898 0 0 0-34.2280415 133.66999651c0 77.07098908 31.12482213 149.51030817 87.63119687 203.97874709a302.54068538 302.54068538 0 0 0 211.38941876 84.48166148 302.72595148 302.72595148 0 0 0 211.3894195-84.43534478 281.42026982 281.42026982 0 0 0 87.53856345-204.02506379 275.58436544 275.58436544 0 0 0-34.13540809-133.66999651 295.50054663 295.50054663 0 0 0-91.10494918-100.59987268 26.02998578 26.02998578 0 0 1-6.80855522-36.68282626l0.46316707-0.55580049a28.34582042 28.34582042 0 0 1 38.67444467-6.20643731 349.45950246 349.45950246 0 0 1 107.77896157 119.17286935 330.9328225 330.9328225 0 0 1 12.78340899 291.70257663 340.24247919 340.24247919 0 0 1-75.95938811 108.70529571 354.78592306 354.78592306 0 0 1-112.64221509 73.2730191A364.60506352 364.60506352 0 0 1 495.80421796 882.27862768z" fill="" p-id="2063"></path></svg>