<?xml version="1.0" standalone="no"?><!DOCTYPE svg PUBLIC "-//W3C//DTD SVG 1.1//EN" "http://www.w3.org/Graphics/SVG/1.1/DTD/svg11.dtd"><svg t="1602571777297" class="icon" viewBox="0 0 1024 1024" version="1.1" xmlns="http://www.w3.org/2000/svg" p-id="29977" xmlns:xlink="http://www.w3.org/1999/xlink" width="200" height="200"><defs><style type="text/css"></style></defs><path d="M512.182 150.433L287.329 343.155h449.705L512.182 150.433z m0 52.504l115.436 108.096H396.747l115.435-108.096z m398.576 654.167h-45.236V444.542h64.245c27.512 0 54.655-1.601 63.499-27.634 8.853-26.034-2.519-43.634-24.317-60.447L573.695 37.63c-19.165-10.48-40.344-15.685-61.514-15.685-21.178 0-42.348 5.205-61.514 15.685L55.417 356.461c-21.8 16.813-33.312 33.425-24.468 59.458 8.853 26.034 36.138 28.623 63.649 28.623h82.316v412.563h-59.24c-53.239 0-87.32 33.128-87.32 77.103 0 45.865 31.509 75.476 84.749 75.476h800.606c53.239 0 78.301-43.668 78.301-78.799 0-34.634-30.023-73.781-83.252-73.781zM68.293 402.631l417.444-342.86c8.25-3.762 17.313-5.704 26.445-5.704 9.124 0 18.195 1.942 26.444 5.704l417.646 343.017-887.979-0.157z m751.05 41.911v412.563h-82.309V444.542h82.309z m-126.475 0v412.563h-84.319V444.542h84.319z m-128.488 0v412.563h-84.32V444.542h84.32z m-130.491 0v412.563h-82.316V444.542h82.316z m-126.484 0v412.563h-82.308V444.542h82.308z m610.316 528.506h-813.08c-19.009 0-34.449-19.166-34.449-38.149 0-18.974 15.439-38.971 34.449-38.971h813.08c19.009 0 34.439 18.931 34.439 37.903 0 18.983-15.431 39.217-34.439 39.217z" fill="" p-id="29978"></path></svg>