<?xml version="1.0" standalone="no"?><!DOCTYPE svg PUBLIC "-//W3C//DTD SVG 1.1//EN" "http://www.w3.org/Graphics/SVG/1.1/DTD/svg11.dtd"><svg t="1758243511801" class="icon" viewBox="0 0 1024 1024" version="1.1" xmlns="http://www.w3.org/2000/svg" p-id="5166" xmlns:xlink="http://www.w3.org/1999/xlink" width="200" height="200"><path d="M833.47 337.03C804.22 187.15 672.62 73.83 511.77 73.83c-160.84 0-292.44 113.32-321.69 263.2C80.42 366.28 0 468.63 0 585.61c0 142.57 113.32 255.9 255.89 255.9h36.56v-73.12h-36.56c-102.35 0-182.78-80.42-182.78-182.78 0-102.35 80.42-182.78 182.78-182.78 0-142.57 113.32-255.89 255.89-255.89s255.9 113.32 255.9 255.89c102.35 0 182.78 80.42 182.78 182.78s-80.42 182.78-182.78 182.78h-36.56v73.12h36.56c142.57 0 255.89-113.33 255.89-255.9-0.01-116.98-80.44-219.33-190.1-248.58z m0 0" fill="#323333" p-id="5167"></path><path d="M544.68 486.91c-14.63-10.97-29.24-14.63-43.87-7.31-3.65 0-7.31 3.65-10.97 7.31L380.17 592.92c-14.62 14.63-14.62 36.56 0 51.18 14.63 14.63 40.21 14.63 54.84 0l43.86-40.21v310.73c0 21.93 18.28 36.55 36.56 36.55 21.93 0 36.55-18.27 36.55-36.55V603.88l43.87 40.21c14.62 14.63 40.21 14.63 54.83 0 14.63-14.62 14.63-36.55 0-51.18l-106-106z m0 0" fill="#323333" p-id="5168"></path></svg>